<svg xmlns="http://www.w3.org/2000/svg" viewBox="0 0 900 1600" role="img" aria-labelledby="title desc">
  <title id="title">Blair portrait placeholder one</title>
  <desc id="desc">A graphic portrait silhouette against hot pink and sunshine shapes.</desc>
  <defs>
    <linearGradient id="sky" x1="0" y1="0" x2="1" y2="1">
      <stop offset="0" stop-color="#FF3D8A"/>
      <stop offset="1" stop-color="#FFC63F"/>
    </linearGradient>
  </defs>
  <rect width="900" height="1600" fill="url(#sky)"/>
  <circle cx="735" cy="260" r="190" fill="#FFF6EA" stroke="#221B15" stroke-width="18"/>
  <path d="M140 1530c20-420 180-650 430-650 230 0 320 245 350 650z" fill="#FF5B2E" stroke="#221B15" stroke-width="22"/>
  <circle cx="470" cy="650" r="250" fill="#8E5B46" stroke="#221B15" stroke-width="22"/>
  <path d="M240 620c15-270 180-365 350-300 120 45 185 165 145 290-75-95-170-145-285-150-50 105-120 170-210 195z" fill="#221B15"/>
  <path d="M380 720c55 45 115 45 175 0" fill="none" stroke="#FFF6EA" stroke-width="18" stroke-linecap="round"/>
  <path d="M72 280l50 105 115 15-84 80 21 115-102-55-102 55 21-115-84-80 115-15z" fill="#FFC63F" stroke="#221B15" stroke-width="16"/>
</svg>
